<?xml version="1.0" ?><!DOCTYPE svg  PUBLIC '-//W3C//DTD SVG 1.0//EN'  'http://www.w3.org/TR/2001/REC-SVG-20010904/DTD/svg10.dtd'><svg height="110px" style="enable-background:new 0 0 110 110;" version="1.0" viewBox="0 0 110 110" width="110px" xml:space="preserve" xmlns="http://www.w3.org/2000/svg" xmlns:xlink="http://www.w3.org/1999/xlink"><g id="Artboard"/><g id="Multicolor"><circle cx="55" cy="55" r="55" style="fill:#32BEA6;"/><g><path d="M26.414,23.586c-0.572-0.572-1.432-0.743-2.18-0.434C23.487,23.462,23,24.191,23,25v60    c0,1.105,0.895,2,2,2h60c0.809,0,1.538-0.487,1.848-1.235c0.31-0.747,0.138-1.608-0.434-2.18L26.414,23.586z M49,79    c-9.941,0-18-8.059-18-18c0-4.169,1.418-8.006,3.796-11.057c0.353-0.452,0.883-0.732,1.455-0.766    c0.573-0.035,1.132,0.178,1.538,0.584l22.45,22.45c0.405,0.405,0.617,0.965,0.582,1.537s-0.313,1.104-0.765,1.456    C57.006,77.582,53.169,79,49,79z" style="fill:#F0F1F1;"/><path d="M26.414,23.586c-0.572-0.572-1.432-0.743-2.18-0.434C23.487,23.462,23,24.191,23,25v60    c0,0.619,0.287,1.166,0.729,1.533l12.68-12.68C33.075,70.585,31,66.037,31,61c0-4.168,1.417-8.006,3.796-11.057    c0.353-0.452,0.883-0.732,1.456-0.767c0.572-0.035,1.132,0.178,1.538,0.584l11.356,11.356l7.399-7.399L26.414,23.586z" style="fill:#FFFFFF;"/><rect height="5.944" style="fill:#CFD3D4;" transform="matrix(0.6886 0.7251 -0.7251 0.6886 67.5888 -26.1715)" width="1.75" x="63.391" y="62.637"/><rect height="6.158" style="fill:#CFD3D4;" transform="matrix(0.6886 0.7251 -0.7251 0.6886 71.6399 -27.6139)" width="1.75" x="67.096" y="66.526"/><rect height="5.944" style="fill:#CFD3D4;" transform="matrix(0.6886 0.7251 -0.7251 0.6886 75.5785 -29.3606)" width="1.75" x="71.099" y="70.345"/><rect height="6.246" style="fill:#CFD3D4;" transform="matrix(0.6886 0.7251 -0.7251 0.6886 79.6146 -30.8435)" width="1.75" x="74.844" y="74.152"/><rect height="5.944" style="fill:#CFD3D4;" transform="matrix(0.6886 0.7251 -0.7251 0.6886 83.5682 -32.5498)" width="1.75" x="78.807" y="78.053"/><rect height="5.944" style="fill:#E2E4E5;" transform="matrix(0.6886 0.7251 -0.7251 0.6886 30.6801 -11.4393)" width="1.75" x="27.784" y="27.03"/><rect height="6.158" style="fill:#E2E4E5;" transform="matrix(0.6886 0.7251 -0.7251 0.6886 34.7312 -12.8817)" width="1.75" x="31.489" y="30.918"/><rect height="5.944" style="fill:#E2E4E5;" transform="matrix(0.6886 0.7251 -0.7251 0.6886 38.6698 -14.6284)" width="1.75" x="35.492" y="34.738"/><rect height="6.246" style="fill:#E2E4E5;" transform="matrix(0.6886 0.7251 -0.7251 0.6886 42.7059 -16.1113)" width="1.75" x="39.237" y="38.545"/><rect height="5.944" style="fill:#E2E4E5;" transform="matrix(0.6886 0.7251 -0.7251 0.6886 46.6595 -17.8176)" width="1.75" x="43.2" y="42.446"/><g><path d="M29.63,75.035c1.577,0.134,3.111,0.806,4.32,2.015c1.209,1.209,1.881,2.744,2.015,4.32L29,82     L29.63,75.035z" style="fill:#3E3E3F;"/><path d="M33.95,77.05c-1.209-1.209-2.743-1.881-4.32-2.015L29,82l0.035-0.003l4.929-4.929     C33.959,77.062,33.956,77.056,33.95,77.05z" style="fill:#5B5C5F;"/><path d="M45.686,79.456c-0.119-0.119-0.153-0.296-0.087-0.448c0.779-1.822,0.444-4.007-1.042-5.493     c-1.486-1.486-3.67-1.821-5.493-1.042c-0.152,0.065-0.33,0.031-0.447-0.086l-0.002-0.002c-0.119-0.119-0.153-0.296-0.088-0.449     c0.779-1.822,0.444-4.006-1.042-5.493c-1.491-1.491-3.685-1.823-5.511-1.034c-0.141,0.061-0.305,0.03-0.414-0.079l-0.017-0.016     l-1.129,1.129l-0.785,8.592c1.577,0.134,3.111,0.806,4.321,2.015c1.209,1.209,1.881,2.744,2.015,4.321l8.591-0.785L45.686,79.456     z" style="fill:#F4D0A1;"/><path d="M70.456,26.657c3.854-2.595,9.122-2.192,12.53,1.216l0.142,0.142     c3.408,3.408,3.811,8.676,1.216,12.53L70.456,26.657z" style="fill:#F7B4B4;"/><path d="M67.5,29.358l1.485-1.485c0.46-0.46,0.948-0.863,1.471-1.216l13.887,13.887     c-0.353,0.523-0.756,1.011-1.216,1.471L81.642,43.5L67.5,29.358z" style="fill:#FACB1B;"/><path d="M83.055,27.942l-0.069-0.069c-3.408-3.408-8.676-3.812-12.53-1.216l6.942,6.942L83.055,27.942z" style="fill:#FBC8C8;"/><path d="M74.572,36.429L67.5,29.358L31.544,65.314l0.017,0.017c0.109,0.109,0.273,0.14,0.414,0.079     c1.826-0.789,4.02-0.457,5.511,1.034c1.486,1.486,1.821,3.671,1.042,5.493c-0.065,0.153-0.031,0.33,0.088,0.449l0.002,0.002     c0.117,0.117,0.295,0.152,0.447,0.086c1.822-0.779,4.006-0.444,5.493,1.042c1.486,1.486,1.821,3.671,1.042,5.493     c-0.065,0.153-0.031,0.33,0.087,0.448L81.642,43.5L74.572,36.429z" style="fill:#0484AB;"/><path d="M38.615,72.385c-0.119-0.119-0.153-0.296-0.088-0.449c0.779-1.822,0.444-4.006-1.042-5.493     c-1.491-1.491-3.685-1.823-5.511-1.034c-0.141,0.061-0.305,0.03-0.414-0.079l-0.017-0.016l-1.129,1.129l-0.785,8.592     c1.577,0.134,3.111,0.806,4.32,2.015L38.615,72.385z" style="fill:#F8E1C2;"/><path d="M37.485,66.444c1.486,1.486,1.821,3.671,1.042,5.493c-0.065,0.153-0.031,0.33,0.088,0.449     l35.956-35.956L67.5,29.358L31.544,65.314l0.017,0.017c0.109,0.109,0.273,0.14,0.414,0.079     C33.8,64.62,35.995,64.953,37.485,66.444z" style="fill:#059BBF;"/><path d="M77.398,33.598l-6.942-6.942c-0.523,0.353-1.011,0.756-1.471,1.216L67.5,29.358l7.07,7.069     L77.398,33.598z" style="fill:#FBE158;"/></g></g></g></svg>