<svg width="512" height="512" xmlns="http://www.w3.org/2000/svg">

 <g>
  <title>background</title>
  <rect fill="none" id="canvas_background" height="402" width="582" y="-1" x="-1"/>
 </g>
 <g>
  <title>Layer 1</title>
  <path fill="#33bda6" id="svg_6" d="m7.921,256.002c0,-137.021 111.07,-248.083 248.075,-248.083c137.013,0 248.083,111.062 248.083,248.083c0,137.005 -111.07,248.079 -248.083,248.079c-137.005,0 -248.075,-111.074 -248.075,-248.079z" class="st3"/>
  <path fill="#17474c" id="svg_7" d="m346.375,409.871c0,23.185 -17.11,41.983 -38.226,41.983l-104.306,0c-21.106,0 -38.218,-18.799 -38.218,-41.983c0,0 8.754,-90.949 15.921,-113.699c7.168,-22.726 17.111,-41.976 38.227,-41.976l12.906,0l48.995,0l13.741,0c21.107,0 32.645,13.989 38.218,41.976c5.574,27.994 12.742,113.699 12.742,113.699z" class="st11"/>
  <path fill="#0e2c2d" id="svg_8" d="m256.843,451.974l-53,-0.12c-21.106,0 -38.218,-18.799 -38.218,-41.983c0,0 8.754,-90.949 15.921,-113.699c7.168,-22.726 17.111,-41.976 38.227,-41.976l12.906,0l23.497,-0.222l0.667,198z" class="st147"/>
  <path fill="#e9c29c" id="svg_12" d="m346.375,409.871c0,23.185 -17.11,41.983 -38.226,41.983l-5.615,-41.963l43.841,-0.02z" class="st23"/>
  <path fill="#29636d" id="svg_13" d="m346.375,409.871l-43.801,0.009l-20.9,-155.684l13.741,0c21.107,0 32.645,13.989 38.218,41.976c5.574,27.994 12.742,113.699 12.742,113.699z" class="st71"/>
  <path fill="#e9c29c" id="svg_14" d="m203.843,451.854c-21.106,0 -38.218,-18.799 -38.218,-41.983l46.113,0.128l-7.895,41.855z" class="st23"/>
  <path fill="#29636d" id="svg_15" d="m165.625,409.871c0,0 8.754,-90.949 15.921,-113.699c7.168,-22.726 17.111,-41.976 38.227,-41.976l12.906,-0.05l-20.94,155.853l-46.114,-0.128z" class="st71"/>
  <polygon fill="#ffffff" id="svg_18" points="231.82,408.101 249.234,270.364 254,264.257 256.572,264.122 262.766,270.364 280.18,408.101         255.074,429.393       " class="st91"/>
  <polygon fill="#8dd3d5" id="svg_21" points="244.438,308.287 265.39,291.135 264.469,283.867 245.573,299.333        " class="st59"/>
  <polygon fill="#8dd3d5" id="svg_23" points="241.239,333.604 267.994,311.7 267.069,304.432 242.374,324.651        " class="st59"/>
  <polygon fill="#8dd3d5" id="svg_25" points="238.037,358.908 270.594,332.265 269.673,324.991 239.172,349.961        " class="st59"/>
  <polygon fill="#8dd3d5" id="svg_27" points="234.838,384.225 273.195,352.823 272.273,345.562 235.97,375.271        " class="st59"/>
  <polygon fill="#8dd3d5" id="svg_29" points="231.82,408.101 232.741,408.631 275.788,373.401 274.874,366.127 232.768,400.582        " class="st59"/>
  <polygon fill="#8dd3d5" id="svg_31" points="245.702,420.841 278.399,393.96 277.474,386.693 240.937,416.537        " class="st59"/>
  <path fill="#6fc5bc" id="svg_33" d="m267.015,267.006c0,6.317 -5.051,11.429 -11.282,11.429c-6.227,0 -11.282,-5.112 -11.282,-11.429c0,-6.304 5.055,-11.417 11.282,-11.417c6.231,0 11.282,5.113 11.282,11.417z" class="st118"/>
  <path fill="#e9c29c" id="svg_36" d="m329.255,170.155c0,40.463 -32.796,73.259 -73.256,73.259c-40.464,0 -73.255,-32.796 -73.255,-73.259c0,-40.457 32.791,-73.252 73.255,-73.252c40.46,-0.001 73.256,32.795 73.256,73.252z" class="st23"/>
  <path fill="#492a15" id="svg_38" d="m329.255,170.155l-49.948,-44.948c0,0 -10.636,17.615 -39.005,30.447c-27.354,12.366 -57.558,14.501 -57.558,14.501c0,-40.457 32.791,-73.252 73.255,-73.252c40.46,-0.001 73.256,32.795 73.256,73.252z" class="st4"/>
  <ellipse fill="#343433" id="svg_40" ry="10.602" rx="10.036" cy="181.039" cx="234.043" class="st110"/>
  <path fill="#343433" id="svg_42" d="m287.575,181.039c0,5.854 -4.497,10.602 -10.041,10.602c-5.541,0 -10.031,-4.749 -10.031,-10.602s4.49,-10.605 10.031,-10.605c5.544,-0.001 10.041,4.751 10.041,10.605z" class="st110"/>
  <path fill="#ffffff" id="svg_44" d="m284.686,177.021c0,2.339 -1.796,4.239 -4.015,4.239c-2.209,0 -4.008,-1.9 -4.008,-4.239c0,-2.342 1.799,-4.242 4.008,-4.242c2.219,0 4.015,1.9 4.015,4.242z" class="st91"/>
  <path fill="#ffffff" id="svg_46" d="m241.084,177.021c0,2.339 -1.795,4.239 -4.019,4.239c-2.213,0 -4.008,-1.9 -4.008,-4.239c0,-2.342 1.795,-4.242 4.008,-4.242c2.225,0 4.019,1.9 4.019,4.242z" class="st91"/>
  <path fill="#492a15" id="svg_48" d="m223.054,203.68c0,0 1.458,-2.046 0.613,-3.889c-2.377,-5.187 -10.291,-1.306 -9.754,5.759c0,0 0.532,14.67 21.422,15.361c5.444,0.182 12.834,-0.998 18.748,-7.527c4.084,-4.509 2.972,-12.809 -2.266,-14.739c-5.645,-2.081 -12.901,-0.573 -18.318,7.674c-5.146,7.833 -15.297,2.386 -15.131,-2.843c0.154,-4.837 5.76,-2.945 4.686,0.204z" class="st4"/>
  <path fill="#492a15" id="svg_49" d="m288.946,203.68c0,0 -1.458,-2.046 -0.615,-3.889c2.376,-5.187 10.292,-1.306 9.756,5.759c0,0 -0.532,14.67 -21.424,15.361c-5.442,0.182 -12.832,-0.998 -18.746,-7.527c-4.084,-4.509 -2.972,-12.809 2.266,-14.739c5.646,-2.081 12.902,-0.573 18.318,7.674c5.146,7.833 15.297,2.386 15.131,-2.843c-0.155,-4.837 -5.762,-2.945 -4.686,0.204z" class="st4"/>
  <path fill="#e0b500" id="svg_52" d="m315.326,143.936c0,0 19.563,-84.496 -59.309,-84.496s-59.299,84.496 -59.299,84.496l118.608,0z" class="st6"/>
  <path fill="#edc92c" id="svg_53" d="m255.66,143.936l0.357,-84.496c-78.872,0 -59.299,84.496 -59.299,84.496l58.942,0z" class="st41"/>
  <path fill="#edc92c" id="svg_54" d="m272.222,139.269c0,0 5.345,-81.962 -16.203,-81.962c-21.547,0 -16.199,81.962 -16.199,81.962l32.402,0z" class="st41"/>
  <path fill="#efd050" id="svg_55" d="m255.66,139.269l0.359,-81.962c-21.547,0 -16.199,81.962 -16.199,81.962l15.84,0z" class="st45"/>
  <path fill="#dbb626" id="svg_56" d="m334.049,136.93c0,11.811 -34.944,17.258 -78.05,17.258s-78.049,-5.447 -78.049,-17.258s34.943,-3.285 78.049,-3.285s78.05,-8.526 78.05,3.285z" class="st144"/>
 </g>
</svg>