<svg width="110" height="110" xmlns="http://www.w3.org/2000/svg">

 <g>
  <title>background</title>
  <rect fill="none" id="canvas_background" height="402" width="582" y="-1" x="-1"/>
 </g>
 <g>
  <title>Layer 1</title>
  <circle id="svg_1" fill="#33bda6" r="55" cy="55" cx="55.163885"/>
  <rect id="svg_4" fill="#FFFFFF" y="39" x="23" width="64" height="48"/>
  <path id="svg_6" fill="#21B2D1" d="m74,48l0,2l3,0l0,13l-6,0l0,2l6,0l0,9.915c-0.121,0.617 -1.438,6.085 -10,6.085c-8.587,0 -9.875,-5.425 -10,-6.084l0,-9.916l6,0l0,-2l-8,0l0,10l-14,0l0,4l-8,0l0,-14l6,0l0,-2l-6,0l0,-12l12,0l0,14l2,0l0,-11l12,0l0,-2l-12,0l0,-3l-16,0l0,32l12,0l0,-4l12,0c0.146,2.118 2.863,8 12,8c10.743,0 11.979,-7.78 11.99,-7.858l0.01,-27.142l-5,0z"/>
  <path id="svg_8" fill="#F4D0A1" d="m70.607,47.002l14.834,-14.834c0.131,-0.131 0.249,-0.266 0.364,-0.405c1.708,-2.088 1.585,-5.179 -0.364,-7.128c-2.136,-2.136 -5.209,-2.071 -7.204,-0.44c-0.139,0.114 -0.275,0.233 -0.405,0.364l-14.834,14.834l-1.67,5.965c1.602,0.441 2.873,1.709 3.314,3.314l5.965,-1.67z"/>
  <path id="svg_10" fill="#F79392" d="m85.804,31.763l-7.567,-7.567c1.992,-1.629 5.064,-1.7 7.204,0.44c1.949,1.948 2.071,5.038 0.363,7.127z"/>
  <path id="svg_12" fill="#3E3E3F" d="m64.642,48.672l-3.818,1.069c-0.344,0.096 -0.662,-0.221 -0.565,-0.565l1.069,-3.818c0.769,0.211 1.488,0.617 2.093,1.222c0.604,0.604 1.009,1.323 1.221,2.092z"/>
  <path id="svg_14" fill="#DF2C2C" d="m70.661,46.934c1.168,-1.146 13.711,-13.697 13.711,-13.697l-3.805,-3.805l-3.805,-3.805l-0.005,0.005l0,0c0,0 -11.88,11.872 -13.566,13.578c-0.022,0.022 0.008,0.055 0.035,0.039c0.979,-0.605 2.334,-0.436 3.245,0.475c0.966,0.966 1.097,2.425 0.358,3.413c-0.008,0.011 0.004,0.02 0.014,0.016c0.008,0.011 0.022,0.016 0.037,0.005c1.055,-0.794 2.555,-0.711 3.516,0.25c0.958,0.958 1.044,2.461 0.254,3.515c-0.003,0.003 -0.002,0.008 0.001,0.011c0.003,0.003 0.007,0.003 0.01,0z"/>
  <rect id="svg_16" fill="#FACB1B" y="23.32" x="80.279" width="2.041" transform="matrix(0.7071,-0.7071,0.7071,0.7071,3.5175,65.8935) " height="10.761"/>
  <path id="svg_18" fill="#FA5655" d="m76.758,25.633c0,0 -11.88,11.872 -13.566,13.578c-0.022,0.022 0.009,0.055 0.035,0.039c0.979,-0.605 2.334,-0.435 3.244,0.475c0.966,0.966 1.097,2.425 0.358,3.413c-0.009,0.012 0.007,0.026 0.018,0.016l13.721,-13.721l-3.81,-3.8z"/>
 </g>
</svg>