<?xml version="1.0" standalone="no"?><!DOCTYPE svg PUBLIC "-//W3C//DTD SVG 1.1//EN" "http://www.w3.org/Graphics/SVG/1.1/DTD/svg11.dtd"><svg t="1510951542197" class="icon" style="" viewBox="0 0 1099 1024" version="1.1" xmlns="http://www.w3.org/2000/svg" p-id="2199" xmlns:xlink="http://www.w3.org/1999/xlink" width="214.6484375" height="200"><defs><style type="text/css"></style></defs><path d="M1055.56 512c0 282.77-229.23 512-512 512-282.771-0.001-511.999-229.23-511.999-512 0-282.77 229.228-512 512-512 282.772 0 511.999 229.228 511.999 512v0z" p-id="2200" fill="#adbab7" class="selected"></path><path d="M603.286578 510.461052 603.286578 510.461052zM0.001259 510.461052 0.001259 510.461052z" p-id="2201" fill="#ffffff"></path><path d="M493.303 469.101c0-0.905-0.023-1.803-0.089-2.7h-267.175c-0.234 2.351-0.361 4.705-0.361 7.11 0 28.889 17.848 53.57 43.132 63.68v164.010c0 15.361 12.571 27.925 27.938 27.925 15.371 0 27.939-12.565 27.939-27.925v-166.262c6.997-3.506 13.317-8.112 18.702-13.67v67.984c0 8.055 6.605 14.714 14.696 14.714h0.008c8.098 0 14.712-6.658 14.712-14.714v-62.578l0.95 0.047c16.845 0 31.695-8.658 40.326-21.772 8.408 7.405 19.424 11.915 31.506 11.915 26.355-0.001 47.719-21.379 47.719-47.764v0z" p-id="2202" fill="#ffffff"></path><path d="M864.605 297.686h-61.034v-74.148h-536.012v74.148h-44.145v53.465h44.145v84.704h536.012v-84.704h34.274v138.529l-337.695 90.517v70.635h-68.959v37.159l45.16 10.848v184.591h99.056v-184.528l44.21-10.911v-37.159h-65.975v-29.69l337.686-90.457v-233.001h-26.723z" p-id="2203" class="" fill="#ffffff"></path></svg>