<?xml version="1.0" ?><svg id="Buildings" viewBox="0 0 90 90" xmlns="http://www.w3.org/2000/svg"><defs><style>.cls-1{fill:#f0efd2;}.cls-2{fill:#76d03b;}.cls-3{fill:#f1b565;}.cls-4{fill:#383128;}.cls-5{fill:#aa8566;}.cls-6{fill:#2b3f15;}.cls-7{fill:#232e38;}.cls-8{fill:#e45544;}.cls-9{fill:#81d4ef;}.cls-10{fill:#222;}</style></defs><title/><circle class="cls-1" cx="45" cy="45" r="45"/><path class="cls-2" d="M46.49,23A5.36,5.36,0,0,1,49,24.38l.14.16c.06.07.11.15.17.23a2.75,2.75,0,0,1,.17.29,1.76,1.76,0,0,1,.19.39A5.25,5.25,0,0,1,49.43,29a3.92,3.92,0,0,1-1,1.12,7,7,0,0,1,1.48,13.21A1.81,1.81,0,0,1,50,44a5.2,5.2,0,0,1-.35,1.85h0a3.93,3.93,0,0,1-.3.62,1.65,1.65,0,0,1-.22.36,3.15,3.15,0,0,1-.22.29,3.74,3.74,0,0,1-.54.59l-.23.19a2,2,0,0,1-.29.22,4.93,4.93,0,0,1-4.84.46,5.09,5.09,0,0,1-1.32-.86,5,5,0,0,1-9.36,0A7.89,7.89,0,0,1,28,49a8,8,0,0,1-8-8c0-.22,0-.45,0-.67a7,7,0,0,1,2-13.26A7,7,0,0,1,29,21a6.26,6.26,0,0,1,1.23.12,8,8,0,0,1,14.41-2.59A7,7,0,0,1,55.93,23Z"/><rect class="cls-3" height="18" width="3" x="67" y="55.03"/><path class="cls-4" d="M70,74H67a1,1,0,0,1-1-1V55a1,1,0,0,1,1-1h3a1,1,0,0,1,1,1V73A1,1,0,0,1,70,74Zm-2-2h1V56H68Z"/><path class="cls-1" d="M63.17,29H49.43a3.92,3.92,0,0,1-1,1.12,7,7,0,0,1,1.48,13.21A1.81,1.81,0,0,1,50,44a5.2,5.2,0,0,1-.35,1.85,4.36,4.36,0,0,1-.31.61,1.66,1.66,0,0,1-.22.36,1.48,1.48,0,0,1-.22.29,3.74,3.74,0,0,1-.54.59,2.11,2.11,0,0,1-.23.19,2,2,0,0,1-.29.22,4.93,4.93,0,0,1-4.84.46V55H72V29Z"/><rect class="cls-3" height="3" width="29" x="43" y="52.03"/><path class="cls-4" d="M72,56H43a1,1,0,0,1-1-1V52a1,1,0,0,1,1-1H72a1,1,0,0,1,1,1v3A1,1,0,0,1,72,56ZM44,54H71V53H44Z"/><path class="cls-5" d="M70,23H46.49A3.91,3.91,0,0,1,49,24.38a1,1,0,0,1,.14.16,1.94,1.94,0,0,1,.17.23,1.22,1.22,0,0,1,.17.29,1.76,1.76,0,0,1,.19.39A3.8,3.8,0,0,1,50,27a3.87,3.87,0,0,1-.57,2H74Z"/><polyline class="cls-5" points="43 48.57 43 73 39 73 39 50.58"/><path class="cls-4" d="M43,74H39a1,1,0,0,1-1-1V50.58a1,1,0,1,1,2,0V72h2V48.57a1,1,0,1,1,2,0V73A1,1,0,0,1,43,74Z"/><path class="cls-4" d="M39,61.81a1,1,0,0,1-.35-.06l-4.19-1.58a1,1,0,1,1,.71-1.87l4.19,1.58A1,1,0,0,1,39,61.81Z"/><path class="cls-6" d="M27.66,44.35a3.07,3.07,0,0,1-1.24-.26,3,3,0,0,1-1.8-2.42,1,1,0,0,1,2-.25,1.06,1.06,0,0,0,1.66.73,1,1,0,0,1,1.16,1.63A3,3,0,0,1,27.66,44.35Z"/><path class="cls-2" d="M31.24,54a3,3,0,0,0-5.13,1.2,3,3,0,1,0-2,5.64,3,3,0,0,0,5.33.84A4,4,0,1,0,31.24,54Z"/><path class="cls-6" d="M27,64a4,4,0,0,1-3.64-2.36A4,4,0,0,1,21,58a4,4,0,0,1,4-4,3.82,3.82,0,0,1,.53,0,4,4,0,0,1,6.17-1,5,5,0,1,1-1.9,9.79A4,4,0,0,1,27,64Zm-2-8a2,2,0,0,0-2,2,2,2,0,0,0,1.43,1.9,1,1,0,0,1,.67.67A2,2,0,0,0,27,62a2,2,0,0,0,1.65-.87,1,1,0,0,1,1.21-.36A3,3,0,1,0,31.18,55a1,1,0,0,1-.69-.34A2,2,0,0,0,29,54a2,2,0,0,0-1.92,1.48,1,1,0,0,1-1.34.67A2,2,0,0,0,25,56Z"/><path class="cls-6" d="M37.49,36.2a1,1,0,0,1-.92-1.4,3.05,3.05,0,0,1,5.21-.67,1,1,0,0,1-1.57,1.23,1.06,1.06,0,0,0-1.8.23A1,1,0,0,1,37.49,36.2Z"/><path class="cls-6" d="M31.24,60.11l-.2,0a1,1,0,0,1-.78-1.18,1.06,1.06,0,0,0-1.34-1.22,1,1,0,1,1-.58-1.91,3.06,3.06,0,0,1,3.88,3.53A1,1,0,0,1,31.24,60.11Z"/><path class="cls-6" d="M27.66,28.54l-.19,0a1,1,0,0,1-.79-1.17,3.06,3.06,0,0,1,4.94-1.79,1,1,0,0,1-1.27,1.55,1.06,1.06,0,0,0-1.71.62A1,1,0,0,1,27.66,28.54Z"/><path class="cls-7" d="M62,56H54a1,1,0,0,1,0-2h8a1,1,0,0,1,0,2Z"/><path class="cls-8" d="M49.68,25.45A3.8,3.8,0,0,1,50,27a3.87,3.87,0,0,1-.57,2A5.25,5.25,0,0,0,49.68,25.45Z"/><path class="cls-2" d="M49.49,25.06a2.75,2.75,0,0,0-.17-.29A1.22,1.22,0,0,1,49.49,25.06Z"/><path class="cls-2" d="M49.32,24.77c-.06-.08-.11-.16-.17-.23A2,2,0,0,1,49.32,24.77Z"/><path class="cls-8" d="M49.15,24.54,49,24.38A1,1,0,0,1,49.15,24.54Z"/><path class="cls-8" d="M46.49,23A3.91,3.91,0,0,1,49,24.38,5.36,5.36,0,0,0,46.49,23Z"/><path class="cls-4" d="M72,56H43a1,1,0,0,1-1-1V48.57a1,1,0,0,1,2,0V54H71V29a1,1,0,0,1,2,0V55A1,1,0,0,1,72,56Z"/><path class="cls-6" d="M47,45a1,1,0,0,1,0-2,6,6,0,0,0,1.24-11.87,1,1,0,0,1-.41-1.77,3,3,0,0,0,.74-.83A2.88,2.88,0,0,0,49,27a2.82,2.82,0,0,0-.23-1.14,1.19,1.19,0,0,0-.11-.24l-.06-.11a1.71,1.71,0,0,0-.11-.19l-.05-.07-.06-.08a1.11,1.11,0,0,1-.12-.14,2.91,2.91,0,0,0-1.88-1L46,24a1,1,0,0,1,0-2,4.84,4.84,0,0,1,.61,0,4.89,4.89,0,0,1,3.11,1.64,1.8,1.8,0,0,1,.19.22l.15.2.09.13c.07.11.14.22.2.34a2.83,2.83,0,0,1,.26.56A4.69,4.69,0,0,1,51,27a4.9,4.9,0,0,1-.72,2.55l-.07.12a8,8,0,0,1,.13,14.6A7.92,7.92,0,0,1,47,45Z"/><path class="cls-5" d="M54,55V48a4,4,0,0,1,4-4h0a4,4,0,0,1,4,4v7Z"/><path class="cls-4" d="M62,56H54a1,1,0,0,1-1-1V48a5,5,0,0,1,10,0v7A1,1,0,0,1,62,56Zm-7-2h6V48a3,3,0,0,0-6,0Z"/><path class="cls-4" d="M62,73a1,1,0,0,1-1-1V52a1,1,0,0,1,2,0V72A1,1,0,0,1,62,73Z"/><path class="cls-4" d="M74,30H53.43a1,1,0,0,1,0-2h18.7l-2.67-4H52.3a1,1,0,1,1,0-2H70a1,1,0,0,1,.83.45l4,6A1,1,0,0,1,74,30Z"/><path class="cls-6" d="M37,52a6,6,0,0,1-5.11-2.89A9,9,0,0,1,19,41s0-.05,0-.08a8,8,0,0,1,2.21-14.71A8,8,0,0,1,29.51,20a9,9,0,0,1,15.34-2.86,8,8,0,0,1,12.09,5.75,1,1,0,1,1-2,.23A5.84,5.84,0,0,0,49,18a5.93,5.93,0,0,0-3.74,1.31,1,1,0,0,1-1.45-.22,7,7,0,0,0-12.6,2.26,1,1,0,0,1-1.15.75A5.94,5.94,0,0,0,29,22a6,6,0,0,0-5.94,5.2,1,1,0,0,1-.86.86,6,6,0,0,0-1.74,11.37,1,1,0,0,1,.57,1c0,.19,0,.39,0,.58a7,7,0,0,0,10.78,5.88,1,1,0,0,1,1.48.49,4,4,0,0,0,7.48,0,1,1,0,0,1,1.61-.4,4,4,0,0,0,6.36-1.5,1,1,0,0,1,1.86.74,6,6,0,0,1-8.52,3A6,6,0,0,1,37,52Z"/><path class="cls-4" d="M54,73a1,1,0,0,1-1-1V52a1,1,0,0,1,2,0V72A1,1,0,0,1,54,73Z"/><path class="cls-4" d="M62,59H54a1,1,0,0,1,0-2h8a1,1,0,0,1,0,2Z"/><path class="cls-4" d="M62,63H54a1,1,0,0,1,0-2h8a1,1,0,0,1,0,2Z"/><path class="cls-4" d="M62,67H54a1,1,0,0,1,0-2h8a1,1,0,0,1,0,2Z"/><path class="cls-4" d="M62,71H54a1,1,0,0,1,0-2h8a1,1,0,0,1,0,2Z"/><rect class="cls-9" height="7" width="8" x="60" y="33.03"/><path class="cls-7" d="M68,41H60a1,1,0,0,1-1-1V33a1,1,0,0,1,1-1h8a1,1,0,0,1,1,1v7A1,1,0,0,1,68,41Zm-7-2h6V34H61Z"/><path class="cls-6" d="M47.78,49.16a1,1,0,0,1-.6-1.8l.15-.11.14-.11.19-.16a3.12,3.12,0,0,0,.43-.46l.1-.12.08-.11.08-.11a.69.69,0,0,0,.09-.15l.06-.12a3.48,3.48,0,0,0,.24-.47A4.17,4.17,0,0,0,49,44a1.35,1.35,0,0,0,0-.29,1,1,0,0,1,.64-1.26,1,1,0,0,1,1.23.55A2.74,2.74,0,0,1,51,44a6.22,6.22,0,0,1-.41,2.2,5.83,5.83,0,0,1-.37.73,4.91,4.91,0,0,1-.55.82,5,5,0,0,1-.64.69,3.15,3.15,0,0,1-.31.25,2.34,2.34,0,0,1-.3.23l-.2.13A1,1,0,0,1,47.78,49.16Z"/><path class="cls-7" d="M64,41a1,1,0,0,1-1-1V33a1,1,0,0,1,2,0v7A1,1,0,0,1,64,41Z"/><path class="cls-10" d="M74,74H16a1,1,0,0,1,0-2H74a1,1,0,0,1,0,2Z"/></svg>