<?xml version="1.0" ?><!DOCTYPE svg  PUBLIC '-//W3C//DTD SVG 1.1//EN'  'http://www.w3.org/Graphics/SVG/1.1/DTD/svg11.dtd'><svg height="100%" style="shape-rendering:geometricPrecision; text-rendering:geometricPrecision; image-rendering:optimizeQuality; fill-rule:evenodd; clip-rule:evenodd" viewBox="0 0 127000 127000" width="100%" xml:space="preserve" xmlns="http://www.w3.org/2000/svg" xmlns:xlink="http://www.w3.org/1999/xlink"><defs><style type="text/css">
   <![CDATA[
    .fil0 {fill:none}
    .fil1 {fill:#191919}
   ]]>
  </style></defs><g id="图层_x0020_1"><rect class="fil0" height="127000" width="127000" x="0.000874281" y="0.000874281"/><g id="_106741696"><path class="fil1" d="M105756 75321l23 0 0 40010c0,1574 -1284,2858 -2857,2858l-25846 0c-1574,0 -2858,-1284 -2858,-2858l0 -21754c0,-1574 -1283,-2858 -2856,-2858l-15720 0c-1574,0 -2858,1284 -2858,2858l0 21754c0,1574 -1283,2858 -2856,2858l-25846 0c-1574,0 -2858,-1284 -2858,-2858l0 -40010 -2 0 21077 -21434 19039 -19361c558,-567 1242,-855 2038,-855 795,0 1479,288 2037,855l19039 19361 21304 21434z" id="_108409248"/><path class="fil1" d="M67588 10519l29504 30005 24019 24428c1649,1677 2105,4047 1195,6215 -909,2170 -2918,3507 -5270,3507l-143 0c-1591,0 -2960,-574 -4076,-1709l-23904 -24311 -21508 -21874c-1116,-1134 -2485,-1709 -4075,-1709 -1592,0 -2961,575 -4076,1709l-21511 21874c-7967,8104 -15936,16208 -23903,24311 -78,80 -156,149 -232,208 -995,877 -2300,1410 -3731,1410 -3116,0 -5644,-2529 -5644,-5646 0,-1721 771,-3263 1988,-4298l23711 -24115 29505 -30005c1115,-1135 2484,-1709 4076,-1709 1590,0 2959,575 4075,1709z" id="_107017168"/></g></g></svg>