<?xml version="1.0" standalone="no"?><!DOCTYPE svg PUBLIC "-//W3C//DTD SVG 1.1//EN" "http://www.w3.org/Graphics/SVG/1.1/DTD/svg11.dtd"><svg t="1514968113134" class="icon" style="" viewBox="0 0 1024 1024" version="1.1" xmlns="http://www.w3.org/2000/svg" p-id="1095" xmlns:xlink="http://www.w3.org/1999/xlink" width="200" height="200"><defs><style type="text/css"></style></defs><path d="M917.158 273.989c0-3.619-3.619-10.853-7.234-14.471 0 0 0 0 0 0v0c0 0 0 0 0 0l-177.259-180.876c0 0-3.619-3.619-7.234-3.619 0 0 0 0-3.619 0 0 0 0 0-3.619 0 0 0 0 0-3.619 0h-502.831c-28.94 0-54.266 25.321-54.266 54.266v162.786h-36.174c-10.853 0-18.091 7.234-18.091 18.091s7.234 18.091 18.091 18.091h36.174v184.492h-36.174c-10.853 0-18.091 7.234-18.091 18.091s7.234 18.091 18.091 18.091h36.174v184.492h-36.174c-10.853 0-18.091 7.234-18.091 18.091s7.234 18.091 18.091 18.091h36.174v162.786c0 28.94 25.321 54.266 54.266 54.266h651.151c28.94 0 54.266-25.321 54.266-54.266v-658.383c0 3.619 0 3.619 0 0zM736.284 136.523l119.379 119.379h-101.29c-10.853 0-18.091-7.234-18.091-18.091v-101.29zM862.896 950.461h-651.151c-10.853 0-18.091-7.234-18.091-18.091v-162.786h36.174c10.853 0 18.091-7.234 18.091-18.091s-7.234-18.091-18.091-18.091h-36.174v-184.492h36.174c10.853 0 18.091-7.234 18.091-18.091s-7.234-18.091-18.091-18.091h-36.174v-184.492h36.174c10.853 0 18.091-7.234 18.091-18.091s-7.234-18.091-18.091-18.091h-36.174v-162.786c0-10.853 7.234-18.091 18.091-18.091h488.363v126.613c0 28.94 25.321 54.266 54.266 54.266h126.613v640.297c0 10.853-7.234 18.091-18.091 18.091z" p-id="1096"></path><path d="M682.025 671.912c-65.114-21.703-68.733-36.174-68.733-50.644 0-18.091 25.321-36.174 57.879-36.174 28.94 0 54.266 7.234 68.733 18.091 7.234 3.619 18.091 3.619 25.321-7.234 3.619-7.234 3.619-18.091-7.234-25.321-14.471-7.234-39.793-18.091-65.114-21.703v-28.94c0-10.853-7.234-18.091-18.091-18.091s-18.091 7.234-18.091 18.091v28.94c-47.029 7.234-79.584 32.557-79.584 68.733 0 43.412 32.557 65.114 94.057 86.82 65.114 21.703 68.733 36.174 68.733 50.644 0 18.091-25.321 36.174-57.879 36.174-28.94 0-54.266-7.234-68.733-18.091-7.234-3.619-18.091-3.619-25.321 7.234-3.619 7.234-3.619 18.091 7.234 25.321 14.471 7.234 36.174 18.091 61.498 21.703v36.174c0 10.853 7.234 18.091 18.091 18.091s18.091-7.234 18.091-18.091v-32.557c50.644-3.619 83.202-32.557 83.202-72.349 0-47.029-32.557-65.114-94.057-86.82z" p-id="1097"></path><path d="M338.362 219.728h289.399c10.853 0 18.091-7.234 18.091-18.091s-7.234-18.091-18.091-18.091h-289.399c-10.853 0-18.091 7.234-18.091 18.091s7.234 18.091 18.091 18.091z" p-id="1098"></path><path d="M338.362 328.25h289.399c10.853 0 18.091-7.234 18.091-18.091s-7.234-18.091-18.091-18.091h-289.399c-10.853 0-18.091 7.234-18.091 18.091 0 10.853 7.234 18.091 18.091 18.091z" p-id="1099"></path><path d="M772.459 404.22h-434.098c-10.853 0-18.091 7.234-18.091 18.091s7.234 18.091 18.091 18.091h434.098c10.853 0 18.091-7.234 18.091-18.091 0-10.853-7.234-18.091-18.091-18.091z" p-id="1100"></path><path d="M519.234 512.746h-180.876c-10.853 0-18.091 7.234-18.091 18.091s7.234 18.091 18.091 18.091h180.876c10.853 0 18.091-7.234 18.091-18.091 0-10.853-7.234-18.091-18.091-18.091z" p-id="1101"></path><path d="M519.234 621.267h-180.876c-10.853 0-18.091 7.234-18.091 18.091s7.234 18.091 18.091 18.091h180.876c10.853 0 18.091-7.234 18.091-18.091 0-7.234-7.234-18.091-18.091-18.091z" p-id="1102"></path><path d="M519.234 733.412h-180.876c-10.853 0-18.091 7.234-18.091 18.091s7.234 18.091 18.091 18.091h180.876c10.853 0 18.091-7.234 18.091-18.091 0-10.853-7.234-18.091-18.091-18.091z" p-id="1103"></path><path d="M519.234 841.937h-180.876c-10.853 0-18.091 7.234-18.091 18.091s7.234 18.091 18.091 18.091h180.876c10.853 0 18.091-7.234 18.091-18.091 0-10.853-7.234-18.091-18.091-18.091z" p-id="1104"></path></svg>