<?xml version="1.0" standalone="no"?><!DOCTYPE svg PUBLIC "-//W3C//DTD SVG 1.1//EN" "http://www.w3.org/Graphics/SVG/1.1/DTD/svg11.dtd"><svg t="1514968032962" class="icon" style="" viewBox="0 0 1024 1024" version="1.1" xmlns="http://www.w3.org/2000/svg" p-id="1053" xmlns:xlink="http://www.w3.org/1999/xlink" width="200" height="200"><defs><style type="text/css"></style></defs><path d="M866.335656 263.96684c0-58.62069-47.677926-106.300379-106.298615-106.300379L122.225946 157.666461c-58.613634 0-106.300379 47.67969-106.300379 106.300379L15.925567 901.772643c0 58.615398 47.684981 106.300379 106.300379 106.300379l637.811094 0c58.62069 0 106.298615-47.684981 106.298615-106.300379L866.335656 263.96684zM122.225946 228.529853l637.811094 0c19.516712 0 35.436987 15.920275 35.436987 35.436987l0 177.163771L86.796014 441.130611 86.796014 263.96684C86.796014 244.448364 102.709234 228.529853 122.225946 228.529853zM760.03704 937.206103 122.225946 937.206103c-19.518476 0-35.431696-15.920275-35.431696-35.431696L86.79425 511.999294l708.678014 0 0 389.775112C795.474028 921.285828 779.553753 937.206103 760.03704 937.206103zM725.127436 299.398536l-70.870447 0 0 70.868683 70.870447 0L725.127436 299.398536zM193.096393 370.268983l318.939942 0c19.546697 0 35.392892-15.920275 35.392892-35.436987 0-19.585501-15.846195-35.429932-35.392892-35.429932l-318.939942 0c-19.548461 0-35.399947 15.844431-35.399947 35.429932C157.694682 354.346944 173.546168 370.268983 193.096393 370.268983zM901.774407 15.929094 263.965076 15.929094c-58.62069 0-106.26863 47.684981-106.26863 106.300379l70.831643 0c0-19.518476 15.920275-35.431696 35.436987-35.431696l637.809331 0c19.548461 0 35.431696 15.91322 35.431696 35.431696L937.206103 760.031749c0 19.516712-15.883235 35.442279-35.431696 35.442279l0 70.861628c58.615398 0 106.300379-47.677926 106.300379-106.303907L1008.074786 122.22771C1008.074786 63.614075 960.388041 15.929094 901.774407 15.929094z" p-id="1054"></path></svg>