<?xml version="1.0" ?><!DOCTYPE svg  PUBLIC '-//W3C//DTD SVG 1.1//EN'  'http://www.w3.org/Graphics/SVG/1.1/DTD/svg11.dtd'><svg enable-background="new 0 0 16 16" height="16px" id="图层_1" version="1.1" viewBox="0 0 16 16" width="16px" xml:space="preserve" xmlns="http://www.w3.org/2000/svg" xmlns:xlink="http://www.w3.org/1999/xlink"><g id="wheel_1_"><g><linearGradient gradientUnits="userSpaceOnUse" id="SVGID_1_" x1="8.0005" x2="8.0005" y1="16" y2="4.882813e-004"><stop offset="0.0337" style="stop-color:#221714"/><stop offset="1" style="stop-color:#514F4F"/></linearGradient><path d="M15.579,9.248l-1.54-1.055c-0.155-0.106-0.155-0.28,0-0.387l1.54-1.055    c0.155-0.106,0.245-0.343,0.198-0.525L15.349,4.89c-0.069-0.175-0.28-0.314-0.468-0.309l-1.873,0.052    c-0.188,0.005-0.291-0.136-0.227-0.313l0.63-1.772c0.063-0.178-0.003-0.422-0.147-0.543l-1.122-0.826    c-0.158-0.102-0.41-0.091-0.56,0.023L10.08,2.357C9.931,2.473,9.766,2.419,9.712,2.238l-0.54-1.835    c-0.053-0.181-0.25-0.345-0.437-0.364c0,0-0.374-0.039-0.741-0.039C7.663,0,7.357,0.029,7.357,0.029    C7.17,0.047,6.973,0.209,6.92,0.39L6.375,2.238C6.322,2.419,6.157,2.473,6.007,2.357L4.463,1.169    C4.313,1.054,4.061,1.042,3.902,1.143L2.801,1.936c-0.145,0.119-0.212,0.362-0.149,0.54l0.656,1.844    C3.37,4.497,3.268,4.638,3.08,4.633L1.108,4.578C0.92,4.572,0.709,4.711,0.639,4.886l-0.417,1.28    C0.175,6.348,0.264,6.584,0.419,6.69l1.629,1.116c0.155,0.106,0.155,0.28,0,0.387L0.419,9.31C0.264,9.416,0.175,9.652,0.223,9.835    l0.417,1.279c0.07,0.175,0.281,0.313,0.469,0.308l1.971-0.054c0.188-0.006,0.291,0.135,0.228,0.313l-0.656,1.844    c-0.063,0.178,0.004,0.42,0.149,0.54l1.101,0.793c0.159,0.101,0.412,0.089,0.561-0.026l1.544-1.188    c0.149-0.115,0.315-0.062,0.368,0.119L6.92,15.61c0.053,0.181,0.25,0.343,0.438,0.36c0,0,0.306,0.029,0.637,0.029    c0.367,0,0.741-0.039,0.741-0.039c0.188-0.02,0.384-0.184,0.437-0.364l0.54-1.835c0.054-0.181,0.219-0.234,0.368-0.119    l1.502,1.156c0.149,0.114,0.401,0.125,0.56,0.023l1.122-0.826c0.145-0.121,0.211-0.365,0.147-0.543l-0.63-1.772    c-0.064-0.178,0.039-0.318,0.227-0.313l1.873,0.052c0.188,0.005,0.398-0.134,0.468-0.309l0.429-1.338    C15.824,9.591,15.734,9.354,15.579,9.248z M7.994,10.96c-1.635,0-2.961-1.324-2.961-2.96c0-1.635,1.326-2.961,2.961-2.961    c1.635,0,2.96,1.326,2.96,2.961C10.954,9.636,9.629,10.96,7.994,10.96z" fill="url(#SVGID_1_)"/></g></g></svg>