<?xml version="1.0" standalone="no"?><!DOCTYPE svg PUBLIC "-//W3C//DTD SVG 1.1//EN" "http://www.w3.org/Graphics/SVG/1.1/DTD/svg11.dtd"><svg t="1507672087760" class="icon" style="" viewBox="0 0 1029 1024" version="1.1" xmlns="http://www.w3.org/2000/svg" p-id="5636" xmlns:xlink="http://www.w3.org/1999/xlink" width="200.9765625" height="200"><defs><style type="text/css"></style></defs><path d="M1019.613 517.443c-15.589-20.263-50.662-37.175-121.778 4.832 6.583-29.538-16.874-47.814-44.58-47.814-24.55 0-53.233 6.351-76.026 29.5-32.734-43.1-66.442-37.956-131.987 2.689-24.982 15.509-46.996 28.758-63.402 38.033-4.366 2.454-7.874 4.326-11.381 6.195 6.432 1.324 12.94 2.494 20.108 2.494 91.968 0 164.605 0 164.605 79.81 0 61.336-71.236 78.988-108.917 79.729h-170.41c-70.22 0-138.96-73.185-138.96-73.185s81.17 33.281 138.96 33.281H645.87c0.27 0 69.399-2.73 69.399-39.828 0-33.941-18.667-39.902-124.7-39.902-69.206 0-139.193-40.84-139.193-40.84s-70.067-51.167-91.577-64.61c-50.894-31.8-91.576-61.96-180.464-26.966C123.024 483.072 0 540.318 0 540.318l113.436 251.7 57.83-37.568c31.994-20.342 49.725-23.848 91.072-2.572 40.02 20.575 163.082 84.563 193.828 99.487 94.542 45.826 135.107 4.79 180.779-21.549 38.967-22.448 314.904-205.21 343.896-225.708 45.28-31.953 59.39-59.855 38.772-86.665zM532.427 326.926v49.276c14.143-3.078 21.238-10.677 21.238-22.757 0-10.132-7.095-18.978-21.238-26.519zM499.965 272.194c0 6.08 1.445 11.106 4.328 15.101 2.843 3.994 8.144 8.124 15.862 12.371v-50.835c-13.447 2.944-20.19 10.699-20.19 23.363z" p-id="5637" fill="#2c2c2c"></path><path d="M525.064 155.152c-90.76 0-164.37 73.63-164.37 164.39 0 90.759 73.61 164.39 164.37 164.39 90.796 0 164.406-73.631 164.406-164.39 0-90.758-73.612-164.39-164.406-164.39z m37.603 224.323c-7.442 7.269-17.573 11.826-30.24 13.718v24.627h-12.272v-23.692c-15.94 0-29.191-3.292-39.673-9.86v-21.062c10.483 8.573 23.735 13.21 39.673 13.834v-56.096c-16.876-7.892-27.827-15.257-32.893-22.114-4.949-6.839-7.482-14.944-7.482-24.297 0-10.912 3.74-20.42 11.223-28.487 7.52-8.067 17.185-12.92 29.152-14.516v-20.46h12.272v20.032c15.237 0.586 25.679 2.728 31.176 6.528v20.536c-8.027-6.157-18.394-9.47-31.176-9.956v57.848c15.783 7.21 26.616 14.4 32.538 21.55 5.964 7.17 8.926 15.217 8.926 24.16 0 11.262-3.742 20.497-11.224 27.707z" p-id="5638" fill="#2c2c2c"></path></svg>