<?xml version="1.0" standalone="no"?><!DOCTYPE svg PUBLIC "-//W3C//DTD SVG 1.1//EN" "http://www.w3.org/Graphics/SVG/1.1/DTD/svg11.dtd"><svg t="1507671999121" class="icon" style="" viewBox="0 0 1024 1024" version="1.1" xmlns="http://www.w3.org/2000/svg" p-id="3589" xmlns:xlink="http://www.w3.org/1999/xlink" width="200" height="200"><defs><style type="text/css"></style></defs><path d="M415.490876 145.816449c-56.601888 17.18364-107.220854 49.802067-146.357213 94.374831-9.946607 11.315775-8.836315 28.579955 2.531236 38.526562 5.154517 4.533213 11.59191 6.753798 17.971775 6.753798 7.582202 0 15.170157-3.135281 20.526022-9.279281 32.371056-36.961798 74.274517-63.948225 121.148404-78.146157 14.439551-4.366382 22.551011-19.582562 18.196135-34.027865-4.366382-14.439551-19.651596-22.625798-34.027865-18.178876L415.490876 145.816449zM984.852135 949.242247l-161.446831-161.492854c80.832719-83.571056 130.795865-197.085483 130.795865-322.444944C954.201169 209.103101 746.478742 1.334652 490.237124 1.334652 234.030022 1.334652 26.313348 209.091596 26.313348 465.304449c0 256.212854 207.659146 463.969798 463.923775 463.969798 99.420045 0 191.30391-31.565663 266.844045-84.836674l166.267685 166.348225c8.485393 8.485393 19.64009 12.719461 30.743011 12.719461s22.257618-4.245573 30.743011-12.719461c16.953528-16.953528 16.953528-44.520989 0-61.491775L984.852135 949.242247zM113.301573 465.287191c0-207.900764 169.10382-376.998831 376.901034-376.998831 207.900764 0 376.998831 169.10382 376.998831 376.998831s-169.109573 376.998831-376.998831 376.998831C282.353618 842.291775 113.301573 673.182202 113.301573 465.287191z" p-id="3590" fill="#2c2c2c"></path><path d="M283.492674 704.816899c0.73636-0.604045 0.517753-1.455461 0.517753-2.214831 0.051775-10.360809 1.254112-20.606562 2.542742-30.875326 2.220584-17.638112 6.201528-34.862022 11.931326-51.631461 5.321348-15.590112 12.195955-30.518652 20.934472-44.538247 6.656-10.665708 14.140404-20.692854 22.556764-30.06418 9.791281-10.907326 20.727371-20.456989 32.675955-28.890607 12.558382-8.870831 26.083236-15.923775 40.315685-21.682337 1.697079-0.684584 2.542742-0.339416 3.422921 1.121798 12.322517 20.462742 24.656539 40.913978 37.025079 61.353708 12.552629 20.738876 25.134022 41.448989 37.721169 62.170607 1.570517 2.577258 1.639551 2.583011 3.348135-0.028764 14.04836-21.46373 28.090966-42.927461 42.110562-64.408449 7.783551-11.914067 15.509573-23.856899 23.270112-35.793978 4.360629-6.702022 8.750022-13.375281 13.064629-20.100315 0.719101-1.104539 1.20809-1.559011 2.657798-0.914697 12.092404 5.378876 23.598022 11.770247 34.493843 19.27191 12.420315 8.56018 23.644045 18.564315 33.803506 29.667236 11.712719 12.805753 21.515506 27.009438 29.759281 42.317663 11.91982 22.15982 19.709124 45.729079 24.541483 70.345348 2.019236 10.216989 3.514966 20.503011 4.291596 30.909843 0.414202 5.597483 1.087281 11.166202 0.995236 16.792449-0.017258 0.684584-0.14382 1.432449 0.517753 1.955955 0 4.05573 0 8.099955 0 12.155685-0.816899 0.868674-1.886921 1.265618-2.962697 1.674067-23.362157 9.054921-47.178787 16.683146-71.501663 22.723596-24.737079 6.144-49.750292 10.803775-75.131685 13.450067-12.167191 1.271371-24.340135 2.214831-36.593618 2.421933-14.186427 0.230112-28.372854 0.264629-42.547775 0.120809-26.566472-0.270382-52.856809-3.560989-78.986067-8.168989-25.369888-4.469933-50.342831-10.613933-74.959101-18.219146-12.374292-3.825618-24.662292-7.927371-36.812225-12.408809-1.070022-0.391191-2.186067-0.719101-3.002966-1.593528C283.492674 716.092404 283.492674 710.454652 283.492674 704.816899zM500.293034 221.51191c2.278112 1.121798 4.803596 0.661573 7.185258 0.949213 10.533393 1.265618 20.635326 4.067236 30.397843 8.088449 8.554427 3.526472 16.56809 8.053933 24.069753 13.53636 8.33582 6.092225 15.820225 12.989843 22.424449 20.945978 9.837303 11.845034 17.200899 25.007461 21.952719 39.613843 2.634787 8.088449 4.343371 16.372494 5.125753 24.90391 0.575281 6.345348 0.661573 12.684944 0.310652 18.972764-0.719101 13.12791-3.957933 25.749573-9.083685 37.882247-4.435416 10.516135-10.297528 20.186607-17.505798 28.994157-6.477663 7.898607-13.800989 15.003326-22.062022 21.066787-10.343551 7.593708-21.613303 13.478831-33.820764 17.454022-7.841079 2.548494-15.860494 4.274337-24.110022 5.091236-16.700404 1.656809-33.038382 0.126562-48.950652-5.200539-15.250697-5.108494-28.861843-13.058876-41.069303-23.598022-12.086652-10.441348-21.578787-22.844404-28.792809-36.956045-5.988674-11.712719-9.745258-24.179056-11.476854-37.289708-0.960719-7.277303-1.294382-14.554607-0.891685-21.814652 0.747865-13.306247 3.750831-26.163775 8.865079-38.503551 4.953169-11.954337 11.724225-22.844404 20.221124-32.526382 6.074966-6.926382 12.765483-13.335011 20.313169-18.748404 13.145169-9.428854 27.515685-16.188404 43.301393-19.82418 5.632-1.294382 11.30427-2.37591 17.108854-2.502472 0.609798-0.011506 1.24836 0.046022 1.691326-0.529258C490.421213 221.51191 495.357124 221.51191 500.293034 221.51191z" p-id="3591" fill="#2c2c2c"></path></svg>