<?xml version="1.0" standalone="no"?><!DOCTYPE svg PUBLIC "-//W3C//DTD SVG 1.1//EN" "http://www.w3.org/Graphics/SVG/1.1/DTD/svg11.dtd"><svg t="1507672060545" class="icon" style="" viewBox="0 0 1024 1024" version="1.1" xmlns="http://www.w3.org/2000/svg" p-id="4896" xmlns:xlink="http://www.w3.org/1999/xlink" width="200" height="200"><defs><style type="text/css"></style></defs><path d="M518.778 27.601c-270.474 0-489.797 219.291-489.797 489.797s219.291 489.797 489.797 489.797c270.508 0 489.797-219.291 489.797-489.797 0-270.508-219.291-489.797-489.797-489.797zM843.898 459.532l-157.087 147.047c-59.722 150.225-122.517 226.391-186.541 226.391-2.556 0-5.211-0.103-7.804-0.349-27.635-2.624-48.421-14.308-61.716-34.709-20.924-31.766-16.061-75.914-10.842-100.794-44.747-25.61-182.973-104.468-231.817-129.867-1.052 14.066 1.294 49.227 10.354 91.106l201.449 115.382c5.459 3.082 9.376 8.117 10.988 14.207s0.734 12.389-2.378 17.771c-5.842 10.601-20.99 14.867-31.835 8.501l-210.575-120.315c-5.633-3.082-9.761-8.641-11.191-15.152-13.573-57.587-23.757-131.267 5.281-154.075 11.617-9.199 27.324-10.148 43.065-2.138 49.921 25.189 239.999 134.098 255.218 142.951 9.588 5.492 13.995 17.142 10.53 27.601-7.38 24.838-11.652 60.597 0.703 79.241 3.426 5.143 9.899 12.175 27.115 13.783 1.225 0.103 2.378 0.172 3.569 0.172 27.291 0 59.51-32.256 92.992-92.258l-45.583 42.614c-9.376 8.604-24.595 7.871-33.060-1.012-8.885-9.727-8.259-24.595 1.188-33.309l129.165-120.873c36.417-93.021 66.897-200.499 84.596-275.475l-288.906-54.018-109.54 286.287c-4.513 11.721-18.718 17.983-30.295 13.471-5.701-2.096-10.354-6.505-12.946-12.317-2.556-5.735-2.693-12.139-0.382-17.949l116.671-304.483c3.36-8.992 12.139-15.075 21.795-15.075l4.413 0.421 331.837 62.132c5.949 1.012 11.547 4.689 15.111 10.075 3.569 5.319 4.793 11.861 3.426 18.021-4.441 20.115-25.747 114.258-59.365 217.538l90.687-84.909c9.376-8.604 24.946-7.804 33.131 1.259 4.231 4.479 6.505 10.53 6.227 16.827-0.311 6.293-2.973 12.071-7.627 16.268zM631.328 463.134c12.246 3.956 19.068 17.037 15.362 29.214-3.15 9.937-12.102 16.588-22.426 16.588l-7.943-1.434-155.579-48.387c-12.389-3.844-19.279-17.037-15.5-29.316 3.114-9.899 12.175-16.511 22.532-16.511l6.828 1.012 156.735 48.843zM478.126 321.79c2.766-9.341 11.965-16.164 22.213-16.164l7.316 1.225 156.351 48.564c6.157 1.963 10.988 6.089 13.854 11.687 2.871 5.559 3.36 11.895 1.434 17.842-2.8 9.407-12.037 16.234-22.285 16.234l-6.895-0.976-156.7-48.805c-6.119-1.963-11.125-6.261-13.995-11.825-2.8-5.559-3.291-11.895-1.294-17.771zM598.511 546.991c5.882 1.781 10.81 5.842 13.748 11.407s3.569 11.965 1.639 17.949c-3.216 9.863-12.246 16.411-22.426 16.411l-7.871-1.468-155.579-48.421c-5.916-1.82-10.81-5.842-13.748-11.335-2.938-5.526-3.535-11.895-1.68-17.878 3.044-9.899 12.037-16.548 22.356-16.548l7.283 1.188 156.277 48.698zM827.631 411.495v-13.12c0-8.885 3.638-17.668 9.969-24.103 12.7-12.841 35.613-12.803 48.387-0.103 6.366 6.436 9.969 15.251 9.969 24.213v13.12h-68.325z" p-id="4897" fill="#2c2c2c"></path></svg>