<svg width="40" height="40" xmlns="http://www.w3.org/2000/svg">

 <g>
  <title>background</title>
  <rect fill="none" id="canvas_background" height="402" width="582" y="-1" x="-1"/>
 </g>
 <g>
  <title>Layer 1</title>
  <path id="svg_1" fill-rule="evenodd" clip-rule="evenodd" d="m8.978,17.021l13.997,13.995l-13.997,0l0,-13.995l0,0zm-6.999,19.893c0,0.605 0.494,1.099 1.1,1.099l33.237,0c0.454,0 0.842,-0.259 1.016,-0.679c0.174,-0.419 0.083,-0.876 -0.238,-1.197l-4.481,-4.48l-2.778,2.775l-0.707,-0.706l2.777,-2.776l-2.267,-2.268l-2.752,2.752l-0.707,-0.707l2.752,-2.752l-2.268,-2.267l-2.727,2.727l-0.707,-0.706l2.727,-2.727l-2.267,-2.268l-2.702,2.701l-0.707,-0.706l2.702,-2.702l-2.268,-2.267l-2.677,2.677l-0.707,-0.707l2.677,-2.676l-2.267,-2.268l-2.652,2.652l-0.707,-0.708l2.652,-2.651l-2.267,-2.267l-2.627,2.626l-0.707,-0.706l2.627,-2.626l-2.267,-2.268l-2.602,2.603l-0.707,-0.707l2.602,-2.602l-2.267,-2.266l-2.577,2.576l-0.707,-0.706l2.577,-2.577l-4.254,-4.253c-0.322,-0.321 -0.779,-0.412 -1.199,-0.238s-0.679,0.561 -0.679,1.016l0,33.23z"/>
 </g>
</svg>