<svg width="128" height="128" xmlns="http://www.w3.org/2000/svg">

 <g>
  <title>background</title>
  <rect fill="none" id="canvas_background" height="402" width="582" y="-1" x="-1"/>
 </g>
 <g>
  <title fill="#000000" stroke="#000000">Layer 1</title>
  <ellipse stroke="#000000" id="svg_3" ry="11.6" rx="11.3" fill="#000000" cy="27.5" cx="64"/>
  <path stroke="#000000" id="svg_4" fill="#000000" d="m116.4,51.4l-104.8,0c-5.9,0 -10.6,4.8 -10.6,10.6l0,0.3c0,5.1 3.6,9.4 8.5,10.4c0.7,0.1 1.4,0.2 2.1,0.2l29.2,0l46.4,0l29.2,0c0.7,0 1.4,-0.1 2.1,-0.2c4.8,-1 8.5,-5.2 8.5,-10.4l0,-0.3c0,-5.8 -4.7,-10.6 -10.6,-10.6z"/>
  <path stroke="#000000" id="svg_5" fill="#000000" d="m12,46.3l104,0c-1.3,-10.1 -5.4,-19.3 -11.4,-26.8l0,10.3c0,3.6 -2.8,6.5 -6.3,6.5l0,0c-3.5,0 -6.3,-2.9 -6.3,-6.5l0,-21.8c-3.6,-2.4 -7.5,-4.3 -11.7,-5.7l0,26.2c0,9.2 -7.3,16.7 -16.3,16.7l0,0c-9,0 -16.3,-7.5 -16.3,-16.7l0,-26.2c-4.1,1.4 -8,3.3 -11.7,5.7l0,21.7c0,3.6 -2.8,6.5 -6.3,6.5c-3.5,0 -6.3,-2.9 -6.3,-6.5l0,-10.2c-6,7.5 -10,16.7 -11.4,26.8z"/>
  <path stroke="#000000" id="svg_6" fill="#000000" d="m116.4,78l-30.2,0c-3,9.4 -11.8,16.3 -22.2,16.3c-10.4,0 -19.1,-6.8 -22.2,-16.3l-30.2,0c-0.7,0 -1.4,-0.1 -2.1,-0.2l0,2.6l8.8,0c1.2,5.6 3.4,11.1 6.6,16.1l-6.2,6.3l13.5,13.6l6.2,-6.3c5,3.3 10.4,5.5 16,6.7l0,8.9l19.1,0l0,-8.9c5.6,-1.2 11,-3.4 16,-6.7l6.2,6.3l13.5,-13.6l-6.2,-6.3c3.2,-5 5.4,-10.5 6.6,-16.1l8.8,0l0,-2.6c-0.6,0.1 -1.3,0.2 -2,0.2z"/>
 </g>
</svg>