<svg width="512" height="512" xmlns="http://www.w3.org/2000/svg">

 <g>
  <title>background</title>
  <rect fill="none" id="canvas_background" height="402" width="582" y="-1" x="-1"/>
 </g>
 <g>
  <title>Layer 1</title>
  <path id="svg_2" d="m470.627,113.361l-72.129,-72.005c-12.496,-12.476 -32.76,-12.476 -45.256,0l-52.33,52.239l117.387,117.186l52.328,-52.239c12.498,-12.476 12.498,-32.705 0,-45.181z"/>
  <path id="svg_3" d="m50.881,480c0,0 132.379,-34.221 133.721,-36.117c0.684,-0.574 1.359,-1.162 2.004,-1.805l216.134,-215.767l-117.385,-117.185l-216.138,215.767c-0.691,0.691 -1.332,1.414 -1.947,2.152c-1.653,1.135 -35.27,134.105 -35.27,134.105c-0.002,10.409 8.453,18.85 18.881,18.85zm44.603,-136.15l19.551,19.541c9.645,-1.711 24.262,-4.178 39.324,-6.654c-2.232,14.117 -4.693,29.402 -6.406,39.551l19.619,19.609c-12.123,3.535 -41.607,11.443 -75.1,20.246l-16.807,-16.777c8.196,-31.932 16.224,-62.747 19.819,-75.516z"/>
 </g>
</svg>