<?xml version="1.0" ?><!DOCTYPE svg  PUBLIC '-//W3C//DTD SVG 1.1//EN'  'http://www.w3.org/Graphics/SVG/1.1/DTD/svg11.dtd'><svg enable-background="new 0 0 512 512" height="512px" id="Layer_1" version="1.1" viewBox="0 0 512 512" width="512px" xml:space="preserve" xmlns="http://www.w3.org/2000/svg" xmlns:xlink="http://www.w3.org/1999/xlink"><g><g><g><g><rect fill="none" height="155.797" stroke="#003535" stroke-linecap="round" stroke-linejoin="round" stroke-width="10" transform="matrix(0.9773 0.212 -0.212 0.9773 69.1029 -57.9924)" width="48.657" x="280.608" y="215.292"/><line fill="none" stroke="#003535" stroke-linecap="round" stroke-linejoin="round" stroke-width="10" x1="324.002" x2="297.189" y1="232.635" y2="356.202"/><polygon fill="none" points="       281.676,400.858 264.643,364.159 312.193,374.477      " stroke="#003535" stroke-linecap="round" stroke-linejoin="round" stroke-width="10"/><rect fill="none" height="29.5" stroke="#003535" stroke-linecap="round" stroke-linejoin="round" stroke-width="10" transform="matrix(0.9773 0.2121 -0.2121 0.9773 50.3564 -64.2223)" width="48.657" x="300.253" y="187.9"/></g><polyline fill="none" points="501,240.683       256,71.142 11,240.683     " stroke="#003535" stroke-linecap="round" stroke-linejoin="round" stroke-width="10"/><polyline fill="none" points="      439.455,198.093 439.455,440.858 72.543,440.858 72.543,198.095     " stroke="#003535" stroke-linecap="round" stroke-linejoin="round" stroke-width="10"/><polyline fill="none" points="      109.033,172.253 109.033,75.808 157.965,75.808 157.965,138.392     " stroke="#003535" stroke-linecap="round" stroke-linejoin="round" stroke-width="10"/><path d="M11,240.683" fill="none" stroke="#003535" stroke-linecap="round" stroke-linejoin="round" stroke-width="10"/><polyline fill="none" points="      112.543,223.323 112.543,400.858 263.23,400.858     " stroke="#003535" stroke-dasharray="15,15" stroke-linecap="round" stroke-linejoin="round" stroke-width="10"/></g></g></g></svg>