<svg width="60" height="60" xmlns="http://www.w3.org/2000/svg">
 <title/>
 <desc/>

 <g>
  <title>background</title>
  <rect fill="none" id="canvas_background" height="402" width="582" y="-1" x="-1"/>
 </g>
 <g>
  <title fill="#ffffff" stroke="#ffffff">Layer 1</title>
  <path fill="#ffffff" stroke="#ffffff" id="Fill-337" d="m24.0005,4c0,-0.552 0.447,-1 1,-1l10,0c0.553,0 1,0.448 1,1l0,4c0,0.552 -0.447,1 -1,1l-10,0c-0.553,0 -1,-0.448 -1,-1l0,-4zm-5.817,8.071c7.726,-1.43 15.682,-1.431 23.637,0.001l5.329,0.94c0.057,0.01 0.114,0.025 0.167,0.045l0.671,0.244c-0.142,-7.357 -6.159,-13.301 -13.549,-13.301l-8.876,0c-7.362,0 -13.359,5.9 -13.545,13.218l0.765,-0.191l5.401,-0.956z"/>
  <polygon fill="#ffffff" stroke="#ffffff" points="26,7 34,7 34,5 26,5 " id="Fill-338"/>
  <path fill="#ffffff" stroke="#ffffff" id="Fill-339" d="m49.4028,45.4102l0.444,-0.513c-1.749,-0.635 -3.553,-1.187 -5.397,-1.672l-0.566,1.112l-4.196,7.663l3.863,0l5.852,-6.59z"/>
  <path fill="#ffffff" stroke="#ffffff" id="Fill-340" d="m16.4497,52l3.863,0l-4.182,-7.642l-0.632,-1.119c-1.807,0.476 -3.575,1.018 -5.289,1.639l0.444,0.607l5.796,6.515z"/>
  <path fill="#ffffff" stroke="#ffffff" id="Fill-341" d="m41.0005,57c-0.552,0 -1,-0.448 -1,-1c0,-0.552 0.448,-1 1,-1c0.552,0 1,0.448 1,1c0,0.552 -0.448,1 -1,1m-22,0c-0.552,0 -1,-0.448 -1,-1c0,-0.552 0.448,-1 1,-1c0.552,0 1,0.448 1,1c0,0.552 -0.448,1 -1,1m26,-3l-1,0l-6,0l-16,0l-6,0l-1,0c-1.654,0 -3,1.346 -3,3l0,3l36,0l0,-3c0,-1.654 -1.346,-3 -3,-3"/>
  <path fill="#ffffff" stroke="#ffffff" id="Fill-342" d="m57.0122,48.0659c-0.246,-0.129 -0.491,-0.256 -0.735,-0.38c-1.439,-0.734 -2.924,-1.406 -4.448,-2.024l-0.922,1.067l-4.799,5.404c2.224,0.507 3.892,2.492 3.892,4.867l0,3l9,0c0.553,0 1,-0.448 1,-1l0,-6c0,-2.074 -1.145,-3.964 -2.988,-4.934"/>
  <path fill="#ffffff" stroke="#ffffff" id="Fill-343" d="m30.0005,42c2.545,0 4.91,-0.777 7,-2.088l0,1.088c0,0.543 -0.068,1.07 -0.186,1.578l-0.001,0.001c-0.172,0.748 -0.467,1.436 -0.846,2.062c-0.042,0.069 -0.082,0.14 -0.126,0.207c-0.162,0.248 -0.342,0.479 -0.533,0.702c-0.085,0.1 -0.173,0.197 -0.264,0.291c-0.182,0.19 -0.372,0.372 -0.574,0.54c-0.109,0.091 -0.225,0.174 -0.34,0.258c-0.166,0.121 -0.336,0.236 -0.512,0.342c-0.118,0.072 -0.236,0.144 -0.359,0.209c-0.242,0.127 -0.494,0.239 -0.752,0.338c-0.097,0.037 -0.194,0.074 -0.292,0.107c-0.302,0.1 -0.611,0.183 -0.929,0.241c-0.07,0.014 -0.143,0.022 -0.214,0.033c-0.351,0.054 -0.707,0.091 -1.072,0.091c-0.365,0 -0.72,-0.037 -1.071,-0.091c-0.071,-0.011 -0.142,-0.019 -0.212,-0.032c-0.319,-0.059 -0.629,-0.142 -0.932,-0.242c-0.096,-0.032 -0.189,-0.068 -0.283,-0.104c-0.263,-0.1 -0.52,-0.214 -0.768,-0.344c-0.114,-0.061 -0.223,-0.128 -0.332,-0.194c-0.185,-0.111 -0.363,-0.23 -0.537,-0.358c-0.103,-0.076 -0.21,-0.149 -0.309,-0.231c-0.212,-0.175 -0.411,-0.365 -0.602,-0.565c-0.087,-0.09 -0.171,-0.183 -0.253,-0.278c-0.193,-0.225 -0.376,-0.459 -0.54,-0.71c-0.042,-0.063 -0.078,-0.13 -0.118,-0.194c-0.381,-0.625 -0.677,-1.312 -0.852,-2.058c-0.12,-0.515 -0.191,-1.048 -0.191,-1.599l0,-1.088c2.09,1.311 4.455,2.088 7,2.088l0,0zm-14,-19l0,-4.097c0.024,0.007 0.048,0.01 0.072,0.017c0.094,0.026 0.189,0.045 0.284,0.066c0.107,0.024 0.214,0.05 0.322,0.067c0.095,0.016 0.191,0.022 0.286,0.033c0.11,0.011 0.218,0.027 0.328,0.032c0.114,0.005 0.228,0 0.342,-0.001c0.093,-0.001 0.185,0.003 0.278,-0.003c0.209,-0.013 0.418,-0.038 0.626,-0.074c7.497,-1.389 15.21,-1.389 22.932,0.001c0.291,0.051 0.582,0.071 0.872,0.076c0.033,0.001 0.066,0.009 0.099,0.009c0.032,0 0.063,-0.008 0.095,-0.008c0.292,-0.005 0.582,-0.026 0.867,-0.076c0.002,0 0.004,-0.001 0.007,-0.001c0.199,-0.036 0.396,-0.081 0.59,-0.138l0,4.097c0,9.088 -6.449,16.026 -12.684,16.902c-0.04,0.006 -0.079,0.012 -0.119,0.017c-0.4,0.052 -0.8,0.081 -1.197,0.081c-0.397,0 -0.797,-0.029 -1.197,-0.081c-0.04,-0.005 -0.079,-0.012 -0.119,-0.017c-6.236,-0.876 -12.684,-7.814 -12.684,-16.902l0,0zm1.878,20.387l4.714,8.613l14.815,0l4.708,-8.597l0.341,-0.67c-1.156,-0.265 -2.331,-0.499 -3.519,-0.707c0.039,-0.337 0.063,-0.679 0.063,-1.026l0,-2.574c4.29,-3.721 7,-9.783 7,-15.426l0,-5.167c0.004,-0.003 0.009,-0.005 0.013,-0.009c0.796,-0.668 1.378,-1.534 1.699,-2.496l-0.996,-0.361l-5.246,-0.926c-7.722,-1.39 -15.435,-1.39 -22.932,-0.001l-5.34,0.942l-0.941,0.235c0.313,1.006 0.903,1.913 1.73,2.607c0.004,0.004 0.009,0.006 0.013,0.01l0,5.166c0,5.643 2.71,11.705 7,15.426l0,2.574c0,0.347 0.024,0.689 0.063,1.026c-1.199,0.21 -2.384,0.445 -3.55,0.713l0.365,0.648z"/>
  <path fill="#ffffff" stroke="#ffffff" id="Fill-344" d="m9.1001,46.7397l-0.821,-1.119c-1.561,0.629 -3.083,1.314 -4.555,2.065c-0.244,0.124 -0.489,0.251 -0.735,0.38c-1.843,0.97 -2.989,2.861 -2.989,4.934l0,6c0,0.553 0.448,1 1,1l9,0l0,-3c0,-2.375 1.669,-4.36 3.893,-4.867l-4.793,-5.393z"/>
 </g>
</svg>